<?xml version="1.0" encoding="UTF-8" standalone="no"?>
<!-- Created with Inkscape (http://www.inkscape.org/) -->

<svg
   width="512"
   height="512"
   viewBox="0 0 512 512"
   version="1.1"
   id="svg5"
   inkscape:version="1.3 (0e150ed6c4, 2023-07-21)"
   sodipodi:docname="icon.svg"
   inkscape:export-filename="icon.png"
   inkscape:export-xdpi="192"
   inkscape:export-ydpi="192"
   xmlns:inkscape="http://www.inkscape.org/namespaces/inkscape"
   xmlns:sodipodi="http://sodipodi.sourceforge.net/DTD/sodipodi-0.dtd"
   xmlns:xlink="http://www.w3.org/1999/xlink"
   xmlns="http://www.w3.org/2000/svg"
   xmlns:svg="http://www.w3.org/2000/svg">
  <sodipodi:namedview
     id="namedview7"
     pagecolor="#ffffff"
     bordercolor="#000000"
     borderopacity="0.25"
     inkscape:showpageshadow="2"
     inkscape:pageopacity="0.0"
     inkscape:pagecheckerboard="0"
     inkscape:deskcolor="#d1d1d1"
     inkscape:document-units="px"
     showgrid="false"
     inkscape:zoom="2.6407395"
     inkscape:cx="219.63545"
     inkscape:cy="207.70697"
     inkscape:window-width="2560"
     inkscape:window-height="1371"
     inkscape:window-x="0"
     inkscape:window-y="32"
     inkscape:window-maximized="1"
     inkscape:current-layer="g6"
     showguides="false" />
  <defs
     id="defs2">
    <linearGradient
       id="linearGradient45"
       inkscape:collect="always">
      <stop
         style="stop-color:#7d7d7d;stop-opacity:1;"
         offset="0"
         id="stop45" />
      <stop
         style="stop-color:#737373;stop-opacity:1;"
         offset="1"
         id="stop46" />
    </linearGradient>
    <linearGradient
       id="linearGradient39"
       inkscape:collect="always">
      <stop
         style="stop-color:#d40055;stop-opacity:1;"
         offset="0"
         id="stop39" />
      <stop
         style="stop-color:#ff3a8a;stop-opacity:1;"
         offset="1"
         id="stop40" />
    </linearGradient>
    <linearGradient
       id="linearGradient36"
       inkscape:collect="always">
      <stop
         style="stop-color:#ff0066;stop-opacity:1;"
         offset="0"
         id="stop36" />
      <stop
         style="stop-color:#ff4e96;stop-opacity:1;"
         offset="1"
         id="stop37" />
    </linearGradient>
    <linearGradient
       id="linearGradient34"
       inkscape:collect="always">
      <stop
         style="stop-color:#ff0066;stop-opacity:1;"
         offset="0"
         id="stop34" />
      <stop
         style="stop-color:#ff84b6;stop-opacity:1;"
         offset="1"
         id="stop35" />
    </linearGradient>
    <inkscape:path-effect
       effect="mirror_symmetry"
       start_point="0,256"
       end_point="512,256"
       center_point="256,256"
       id="path-effect8"
       is_visible="true"
       lpeversion="1.2"
       lpesatellites=""
       mode="horizontal"
       discard_orig_path="false"
       fuse_paths="false"
       oposite_fuse="false"
       split_items="false"
       split_open="false"
       link_styles="false" />
    <inkscape:path-effect
       effect="mirror_symmetry"
       start_point="255.77344,255.99024"
       end_point="255.77344,343.71875"
       center_point="255.77344,299.85449"
       id="path-effect7"
       is_visible="true"
       lpeversion="1.2"
       lpesatellites=""
       mode="free"
       discard_orig_path="false"
       fuse_paths="false"
       oposite_fuse="false"
       split_items="false"
       split_open="false"
       link_styles="false" />
    <inkscape:path-effect
       effect="mirror_symmetry"
       start_point="294.41601,223.12695"
       end_point="294.41601,343.71875"
       center_point="294.41601,283.42285"
       id="path-effect6"
       is_visible="true"
       lpeversion="1.2"
       lpesatellites=""
       mode="free"
       discard_orig_path="false"
       fuse_paths="false"
       oposite_fuse="false"
       split_items="false"
       split_open="false"
       link_styles="false" />
    <inkscape:path-effect
       effect="spiro"
       id="path-effect3919"
       is_visible="true"
       lpeversion="1" />
    <mask
       maskUnits="userSpaceOnUse"
       id="mask415">
      <rect
         style="display:inline;opacity:1;mix-blend-mode:normal;fill:#80b3ff;fill-opacity:1;stroke:none;stroke-width:16.0076;stroke-linecap:round;stroke-miterlimit:0;stroke-dasharray:none;paint-order:markers stroke fill"
         id="rect417"
         width="93.346893"
         height="823.51471"
         x="331.04834"
         y="-304.44382"
         ry="0"
         transform="matrix(0.94012692,0.34082455,-0.29967053,0.95404275,0,0)"
         mask="none" />
    </mask>
    <mask
       maskUnits="userSpaceOnUse"
       id="mask436">
      <path
         id="path438"
         style="color:#000000;font-weight:bold;font-size:619.555px;font-family:C059;-inkscape-font-specification:'C059 Bold';opacity:0.999975;fill:#5599ff;stroke:none;stroke-width:23.2333;stroke-linecap:butt;stroke-miterlimit:0;-inkscape-stroke:none;paint-order:markers stroke fill"
         d="m 189.58288,113.63152 c -48.89368,16.49921 -76.6029,67.73245 -61.24511,113.24367 15.3578,45.51123 68.44461,69.48185 117.33829,52.98265 24.25311,-8.18423 47.43374,-27.15856 64.45746,-50.65314 7.51821,-10.0114 12.24684,-17.13404 24.56803,-37.30169 22.97179,8.51212 30.68499,11.44866 41.9177,14.83923 l 0.1595,0.0451 c 28.26932,8.11441 58.20086,9.18987 82.46747,1.00109 48.89367,-16.4992 76.60226,-67.73428 61.24446,-113.24551 -15.35779,-45.511226 -68.44397,-69.480004 -117.33764,-52.980802 -23.76661,8.020058 -47.94291,27.201955 -65.09954,50.894557 -6.7564,9.330295 -11.54034,16.599225 -24.39613,37.188005 -21.90812,-8.53374 -30.04817,-11.35805 -41.99762,-14.74005 -27.51414,-8.71019 -58.33896,-9.28344 -82.07687,-1.27307 z m 16.75804,47.65104 c 16.37383,-5.52536 46.37156,-2.37289 81.66152,11.70338 -19.62022,32.58001 -42.10051,53.48758 -58.47621,59.01357 -20.37633,6.876 -43.37111,-3.50834 -49.77143,-22.47503 -6.40032,-18.9667 5.45921,-41.11263 26.58612,-48.24192 z M 419.30226,89.418611 c 20.37632,-6.876005 43.37109,3.508325 49.77142,22.475029 6.63608,19.66535 -5.40985,41.72675 -25.78618,48.60275 -16.40613,5.53626 -46.47589,2.36234 -82.47134,-12.06293 19.28262,-32.03056 41.63118,-53.327146 58.4861,-59.014849 z"
         inkscape:label="infinity" />
    </mask>
    <filter
       inkscape:collect="always"
       style="color-interpolation-filters:sRGB"
       id="filter27"
       x="-0.58420433"
       y="-0.69010807"
       width="2.1684087"
       height="2.3802161">
      <feGaussianBlur
         inkscape:collect="always"
         stdDeviation="14.711037"
         id="feGaussianBlur27" />
    </filter>
    <filter
       inkscape:collect="always"
       style="color-interpolation-filters:sRGB"
       id="filter34"
       x="-0.4444813"
       y="-0.51677406"
       width="1.8889626"
       height="2.0335481">
      <feGaussianBlur
         inkscape:collect="always"
         stdDeviation="7.0745162"
         id="feGaussianBlur34" />
    </filter>
    <linearGradient
       inkscape:collect="always"
       xlink:href="#linearGradient34"
       id="linearGradient35"
       x1="297.03818"
       y1="258.07486"
       x2="225.54601"
       y2="288.8457"
       gradientUnits="userSpaceOnUse" />
    <linearGradient
       inkscape:collect="always"
       xlink:href="#linearGradient36"
       id="linearGradient37"
       x1="255.77344"
       y1="224.77092"
       x2="216.29738"
       y2="260.50266"
       gradientUnits="userSpaceOnUse" />
    <linearGradient
       inkscape:collect="always"
       xlink:href="#linearGradient39"
       id="linearGradient40"
       x1="178.30148"
       y1="293.26101"
       x2="259.27927"
       y2="248.10368"
       gradientUnits="userSpaceOnUse" />
    <linearGradient
       inkscape:collect="always"
       xlink:href="#linearGradient45"
       id="linearGradient46"
       x1="0"
       y1="403.17401"
       x2="512"
       y2="190.87085"
       gradientUnits="userSpaceOnUse" />
    <filter
       inkscape:collect="always"
       style="color-interpolation-filters:sRGB"
       id="filter46"
       x="-0.81311696"
       y="-0.81311696"
       width="2.6262339"
       height="2.6262339">
      <feGaussianBlur
         inkscape:collect="always"
         stdDeviation="173.46495"
         id="feGaussianBlur46" />
    </filter>
    <filter
       inkscape:collect="always"
       style="color-interpolation-filters:sRGB"
       id="filter51"
       x="-1.0922676"
       y="-0.44130569"
       width="3.1845353"
       height="1.8826114">
      <feGaussianBlur
         inkscape:collect="always"
         stdDeviation="19.863 10.215"
         id="feGaussianBlur51" />
    </filter>
  </defs>
  <g
     inkscape:label="Calque 1"
     inkscape:groupmode="layer"
     id="layer1">
    <g
       id="g6">
      <path
         style="fill:#ff0066;stroke-width:2"
         d="m 293.97266,256.00976 21.06512,-74.54153 -59.26434,41.68607 z"
         id="path18"
         sodipodi:nodetypes="cccc" />
      <path
         style="fill:#d40055;stroke-width:2"
         d="M 217.57422,256.00976 178.30148,229.30341 196.5091,181.46823 Z"
         id="path17"
         sodipodi:nodetypes="cccc" />
      <path
         style="fill:#d40055;stroke-width:2"
         d="m 293.97266,255.99024 21.06512,74.54153 -59.26434,-41.68607 z"
         id="path16"
         sodipodi:nodetypes="cccc" />
      <path
         style="fill:url(#linearGradient40);stroke-width:2"
         d="m 217.57422,255.99024 -39.27274,26.70635 18.20762,47.83518 59.26434,-41.68607 z"
         id="path2" />
      <path
         style="fill:#d40055;stroke-width:2"
         d="m 333.2454,229.30341 42.22755,-9.86135 -60.43517,-37.97383 z"
         id="path21" />
      <path
         style="fill:#ff2a7f;stroke-width:2"
         d="m 178.30148,229.30341 -42.22755,-9.86135 60.43517,-37.97383 z"
         id="path20" />
      <path
         style="fill:#ff0066;stroke-width:2"
         d="m 333.2454,282.69659 42.22755,9.86135 -60.43517,37.97383 z"
         id="path19" />
      <path
         style="fill:#ff0066;stroke-width:2"
         d="m 178.30148,282.69659 -42.22755,9.86135 60.43517,37.97383 z"
         id="path3" />
      <path
         style="fill:#ff5599;stroke-width:2"
         d="m 419.1172,182.36691 -16.18845,55.55333 -27.4558,-18.47818 z"
         id="path15"
         sodipodi:nodetypes="cccc" />
      <path
         style="fill:#aa0044;stroke-width:2"
         d="m 92.429677,182.36691 -35.177337,38.12617 51.36579,17.42716 27.4558,-18.47818 z"
         id="path14" />
      <path
         style="fill:#ff5599;stroke-width:2"
         d="m 419.1172,329.63309 -16.18845,-55.55333 -27.4558,18.47818 z"
         id="path13"
         sodipodi:nodetypes="cccc" />
      <path
         style="fill:#aa0044;stroke-width:2"
         d="m 57.25234,291.50692 51.36579,-17.42716 27.4558,18.47818 z"
         id="path5"
         sodipodi:nodetypes="cccc" />
      <path
         style="fill:#ff2a7f;stroke-width:2"
         d="M 375.47295,219.44206 419.1172,182.36691 315.03778,181.46823 Z"
         id="path12"
         sodipodi:nodetypes="cccc" />
      <path
         style="fill:#ff0066;stroke-width:2"
         d="M 136.07393,219.44206 92.429677,182.36691 143.29883,168.28125 Z"
         id="path11"
         sodipodi:nodetypes="cccc" />
      <path
         style="fill:#d40055;stroke-width:2"
         d="m 375.47295,292.55794 -7.2249,51.16081 c -17.73676,-4.39566 -35.47351,-8.79132 -53.21027,-13.18698 z"
         id="path10"
         sodipodi:nodetypes="cccc" />
      <path
         style="fill:#ffaacc;stroke-width:2"
         d="m 136.07393,292.55794 7.2249,51.16081 53.21027,-13.18698 z"
         id="path4"
         sodipodi:nodetypes="cccc" />
      <path
         style="fill:#ff5599;stroke-width:2"
         d="m 462.48633,256 h -54.26562 l -5.29196,-18.07976 z"
         id="path24"
         sodipodi:nodetypes="cccc" />
      <path
         style="fill:#ff2a7f;stroke-width:2"
         d="M 57.25234,220.49308 49.060547,256 h 54.265623 l 5.29196,-18.07976 z"
         id="path23" />
      <path
         style="fill:#ff2a7f;stroke-width:2"
         d="M 454.29454,291.50692 462.48633,256 h -54.26562 l -5.29196,18.07976 z"
         id="path22" />
      <path
         style="fill:#ff80b2;stroke-width:2"
         d="M 57.25234,291.50692 49.060547,256 108.61813,274.07976 Z"
         id="path6"
         sodipodi:nodetypes="cccc" />
      <path
         style="fill:#ff5599;stroke-width:2"
         d="m 136.07393,292.55794 7.2249,51.16081 -50.869153,-14.08566 z"
         id="path25" />
      <path
         style="fill:#ff2a7f;stroke-width:2"
         d="m 178.30148,282.69659 77.47196,6.14911 -59.26434,41.68607 z"
         id="path26" />
      <path
         style="fill:#ffd5e5;stroke-width:2;filter:url(#filter27)"
         d="m 136.07393,292.55794 7.2249,51.16081 53.21027,-13.18698 z"
         id="path27"
         sodipodi:nodetypes="cccc"
         inkscape:label="Blur" />
      <path
         style="fill:#ff5599;stroke-width:2"
         d="m 255.77344,223.1543 v 32.85546 l -38.19922,-0.0195 z"
         id="path29" />
      <path
         style="fill:url(#linearGradient37);stroke-width:2"
         d="m 255.77344,223.1543 v 32.85546 l -38.19922,-0.0195 z"
         id="path30" />
      <path
         style="fill:#ffaacc;stroke-width:2"
         d="m 255.77344,288.8457 v -32.83594 l -38.19922,-0.0195 z"
         id="path31"
         sodipodi:nodetypes="cccc" />
      <path
         style="fill:url(#linearGradient35);stroke-width:2"
         d="m 255.77344,288.8457 v -32.83594 h 38.19922 z"
         id="path32"
         sodipodi:nodetypes="cccc" />
      <path
         style="fill:#aa0044;stroke-width:2"
         d="m 255.77344,223.1543 v 32.85546 h 38.19922 z"
         id="path33"
         sodipodi:nodetypes="cccc" />
      <path
         style="fill:#ffd5e5;stroke-width:2;filter:url(#filter34)"
         d="m 255.77344,288.8457 v -32.83594 l -38.19922,-0.0195 z"
         id="path34"
         sodipodi:nodetypes="cccc"
         inkscape:label="Blur2" />
      <path
         style="fill:#ff2a7f;stroke-width:2"
         d="m 375.47295,292.55794 -7.2249,51.16081 50.86915,-14.08566 z"
         id="path37" />
      <path
         style="fill:#aa0044;stroke-width:2"
         d="m 293.97266,256.00976 21.06512,74.52201 18.20762,-47.83518 z"
         id="path38" />
      <path
         style="fill:#d40055;stroke-width:2"
         d="m 57.25234,291.50692 78.82159,1.05102 -43.644253,37.07515 z"
         id="path40" />
      <path
         style="fill:#d40055;stroke-width:2"
         d="M 49.060547,256 108.61813,274.07976 103.32617,256 Z"
         id="path41" />
      <path
         style="fill:#d40055;stroke-width:2"
         d="m 143.29883,168.28125 -7.2249,51.16081 60.43517,-37.97383 z"
         id="path42" />
      <path
         style="fill:#aa0044;stroke-width:2"
         d="m 196.5091,181.46823 21.06512,74.52201 38.19922,-32.83594 z"
         id="path43" />
      <path
         style="fill:#d40055;stroke-width:2"
         d="m 57.25234,220.49308 51.36579,17.42716 27.4558,-18.47818 z"
         id="path44"
         sodipodi:nodetypes="cccc" />
      <path
         style="opacity:1;fill:#aa0044;fill-opacity:1;stroke-width:2"
         d="m 315.03778,181.46823 104.07942,0.89868 -50.86915,-14.08566 z"
         id="path46" />
      <path
         style="opacity:1;fill:#aa0044;fill-opacity:1;stroke-width:2"
         d="m 419.1172,182.36691 -16.18845,55.55333 51.36579,-17.42716 z"
         id="path47" />
      <path
         style="opacity:1;fill:#aa0044;fill-opacity:1;stroke-width:2"
         d="m 315.03778,181.46823 c 0,0 -21.06512,74.52201 -21.06512,74.52201 l 39.27274,-26.68683 z"
         id="path48" />
      <path
         style="opacity:1;fill:#ff0066;fill-opacity:1;stroke-width:2"
         d="M 402.92875,237.92024 462.48633,256 454.29454,220.49308 Z"
         id="path49" />
      <path
         style="opacity:1;fill:#d40055;fill-opacity:1;stroke-width:2"
         d="m 402.92875,274.07976 16.18845,55.55333 35.17734,-38.12617 z"
         id="path50" />
      <path
         style="display:inline;fill:#ffcbe0;stroke-width:2;filter:url(#filter51);fill-opacity:1"
         d="m 419.1172,329.63309 -16.18845,-55.55333 -27.4558,18.47818 z"
         id="path51"
         sodipodi:nodetypes="cccc"
         inkscape:label="Blur" />
    </g>
    <rect
       style="display:none;opacity:0.253;mix-blend-mode:lighten;fill:url(#linearGradient46);stroke-width:2;filter:url(#filter46)"
       id="rect45"
       width="512"
       height="512"
       x="0"
       y="0" />
  </g>
</svg>
